# xmcd
#
# Track frame offsets:
#	150
#	16673
#	28745
#	41730
#	57620
#	68797
#	80593
#	96751
#	111991
#	130780
#	152343
#	165184
#	184877
#	197689
#	206814
#	224099
#
# Disc length: 3220
#
# Revision: 1
# Processed by: cddbd v1.5.1PL0 Copyright (c) Steve Scherf et al.
# Submitted via: audiograbber 1.81.03
# Normalized: r0:TRMNUM
#
DISCID=e00c9210
DTITLE=Sampler - Charts only! Country
DYEAR=1900
DGENRE=
TTITLE0=Johnny Cash: A boy named Sue
TTITLE1=Tammy Wynette: Stand by your man
TTITLE2=Lynn Anderson: Rose garden
TTITLE3=Willie Nelson: Always on my mind
TTITLE4=Dolly Parton: Dumb blonde
TTITLE5=Charlie Rich: The most beautiful girl
TTITLE6=Charlie Daniels Band: The devil went down to Georgia
TTITLE7=Patty Loveless: You can feel bad
TTITLE8=Exile: I can't get close enough
TTITLE9=Merle Haggard and Willie Nelson: Pancho and Lefty
TTITLE10=Ricky van Shelton: Oh pretty woman
TTITLE11=Marty Robbins: El Paso
TTITLE12=Johnny Horton: North to Alaska
TTITLE13=Frankie Laine with Jimmy Carroll and his Orchestra: Rawhide
TTITLE14=Ricky Skaggs: Country boy
TTITLE15=Joe Diffie: Bigger than the Beatles 
EXTD=
EXTT0=
EXTT1=
EXTT2=
EXTT3=
EXTT4=
EXTT5=
EXTT6=
EXTT7=
EXTT8=
EXTT9=
EXTT10=
EXTT11=
EXTT12=
EXTT13=
EXTT14=
EXTT15=
PLAYORDER=
